<?xml version="1.0" standalone="no"?>
<!DOCTYPE svg PUBLIC "-//W3C//DTD SVG 20010904//EN"
 "http://www.w3.org/TR/2001/REC-SVG-20010904/DTD/svg10.dtd">
<svg version="1.0" xmlns="http://www.w3.org/2000/svg"
 width="1024.000000pt" height="1024.000000pt" viewBox="0 0 1024.000000 1024.000000"
 preserveAspectRatio="xMidYMid meet">

<g transform="translate(0.000000,1024.000000) scale(0.100000,-0.100000)"
fill="#000000" stroke="none">
<path d="M4885 8819 c-494 -32 -994 -163 -1400 -366 -347 -174 -639 -380 -909
-643 -646 -629 -1025 -1414 -1111 -2300 -19 -193 -19 -572 0 -758 77 -751 328
-1380 783 -1967 107 -138 432 -463 577 -579 562 -446 1220 -713 1940 -787 66
-7 224 -12 350 -12 881 0 1667 277 2335 821 133 109 412 388 512 512 356 444
593 920 728 1459 83 332 116 643 107 1025 -11 466 -83 838 -242 1246 -281 722
-750 1313 -1381 1740 -665 450 -1466 663 -2289 609z m590 -154 c861 -91 1574
-436 2176 -1051 545 -559 887 -1275 985 -2069 22 -177 25 -625 6 -795 -80
-689 -299 -1251 -692 -1775 -263 -351 -535 -607 -901 -851 -465 -309 -965
-489 -1544 -556 -171 -19 -620 -16 -785 6 -861 115 -1549 455 -2130 1052 -565
580 -905 1314 -991 2139 -18 175 -16 568 5 750 78 686 324 1282 758 1840 114
147 384 420 535 542 547 443 1170 696 1898 772 137 14 529 12 680 -4z"/>
<path d="M4940 8524 c-529 -39 -1016 -176 -1431 -403 -171 -94 -408 -256 -549
-373 -147 -123 -372 -352 -484 -491 -183 -227 -379 -561 -489 -832 -393 -965
-326 -2087 178 -2980 681 -1207 1975 -1872 3345 -1719 653 73 1237 322 1762
751 121 98 362 342 459 463 502 627 754 1305 776 2090 27 947 -328 1841 -993
2505 -632 631 -1429 970 -2327 989 -106 2 -217 2 -247 0z m805 -310 c94 -19
191 -45 217 -56 90 -38 139 -119 124 -201 -8 -44 -68 -113 -111 -128 l-34 -13
43 -37 c53 -47 70 -86 64 -143 -11 -94 -84 -159 -192 -172 -80 -10 -499 72
-491 96 7 22 155 684 155 693 0 5 12 6 28 3 15 -3 104 -22 197 -42z m-694
-305 c93 -188 168 -343 166 -345 -2 -3 -50 -8 -106 -12 l-102 -8 -25 56 -25
56 -137 -17 c-75 -10 -138 -18 -139 -19 -1 0 -8 -26 -14 -58 l-12 -59 -105
-16 c-58 -10 -107 -15 -109 -13 -4 3 205 747 212 754 5 5 127 19 177 21 l48 1
171 -341z m-905 -41 c109 -222 109 -222 108 -293 -2 -108 -51 -195 -146 -260
-152 -102 -323 -97 -430 12 -35 37 -72 99 -153 262 -58 117 -105 214 -103 215
2 2 42 23 89 48 l86 45 104 -209 c106 -215 132 -251 189 -263 39 -8 115 28
144 68 36 49 26 86 -83 311 -56 115 -100 210 -99 211 8 4 174 74 179 74 3 1
54 -99 115 -221z m2438 69 c43 -24 78 -46 78 -50 0 -4 -78 -153 -174 -331
l-173 -324 -82 41 c-46 23 -83 45 -83 50 0 5 55 113 121 241 184 350 220 416
227 416 4 0 42 -20 86 -43z m683 -486 l71 -63 -29 -72 c-15 -39 -81 -206 -145
-371 -64 -165 -118 -302 -120 -304 -2 -2 -37 26 -78 63 l-75 67 25 67 25 67
-24 20 c-13 11 -63 53 -110 93 l-85 73 -49 -29 -48 -29 -76 56 c-42 31 -78 60
-80 64 -2 4 151 95 341 201 328 184 346 192 366 177 11 -9 52 -45 91 -80z
m-4084 22 c-3 -16 -12 -53 -18 -83 l-11 -55 -50 -6 c-83 -10 -154 -71 -154
-131 0 -30 17 -48 46 -48 13 0 78 27 146 60 129 64 197 80 272 66 44 -8 104
-59 122 -103 19 -43 18 -145 -1 -190 -59 -140 -222 -253 -389 -268 -87 -8 -90
-5 -69 93 l17 82 32 -6 c19 -3 56 1 88 10 113 33 188 147 128 194 -28 21 -54
14 -177 -49 -179 -90 -270 -95 -339 -18 -88 97 -66 249 53 362 85 81 159 114
264 116 47 1 47 1 40 -26z m2137 -208 c505 -83 997 -341 1343 -705 221 -232
377 -484 483 -783 l39 -108 76 -49 c42 -27 136 -79 210 -115 73 -36 139 -71
147 -78 59 -48 -89 -346 -267 -539 l-71 -76 -20 -118 c-130 -759 -665 -1395
-1403 -1668 -222 -83 -478 -126 -742 -126 -480 0 -914 146 -1296 435 -81 61
-104 74 -148 80 -102 14 -289 125 -364 217 -70 86 -84 162 -45 243 l22 46 -32
57 c-224 389 -325 784 -309 1207 23 594 262 1133 675 1527 326 310 766 519
1193 567 112 13 391 5 509 -14z m1990 -3698 l0 -62 -49 -18 c-85 -30 -136
-111 -95 -151 25 -25 46 -19 123 35 94 65 145 89 199 89 128 0 202 -124 157
-261 -14 -41 -34 -70 -84 -120 -73 -72 -133 -106 -211 -118 -59 -9 -56 -12
-63 75 l-5 62 44 6 c109 15 200 103 174 170 -18 50 -65 41 -158 -30 -68 -51
-127 -76 -183 -76 -168 0 -206 243 -57 377 49 45 132 85 176 85 l32 0 0 -63z
m-4237 -25 l57 -57 -49 -173 c-26 -94 -45 -172 -42 -172 3 0 80 22 171 48
l166 48 56 -46 c31 -25 55 -50 53 -57 -5 -15 -386 -453 -394 -453 -3 0 -33 24
-66 54 l-59 53 116 124 c65 68 115 125 114 127 -2 2 -82 -17 -176 -43 -95 -25
-174 -44 -177 -41 -4 4 78 331 93 371 9 21 -19 -1 -181 -144 l-90 -80 -43 47
c-74 82 -79 68 75 194 75 62 175 145 222 185 48 39 88 72 91 72 3 1 31 -25 63
-57z m3824 -579 c120 -86 242 -174 271 -195 l53 -40 -63 -49 c-35 -27 -66 -49
-69 -49 -3 0 -27 16 -53 36 l-47 36 -82 -56 c-140 -96 -129 -82 -112 -146 8
-30 15 -58 15 -62 0 -3 -34 -27 -75 -52 -51 -31 -77 -42 -80 -33 -12 37 -115
660 -110 666 5 5 127 98 132 100 1 1 100 -69 220 -156z m-3023 -73 c47 -21 86
-45 86 -52 0 -7 -7 -79 -15 -160 -13 -135 -45 -472 -45 -483 0 -2 -35 11 -77
29 l-78 33 3 44 c2 24 6 52 8 62 5 14 -16 28 -112 73 l-117 55 -36 -35 c-20
-20 -40 -36 -44 -36 -11 0 -132 81 -132 88 0 4 77 75 170 157 94 82 199 175
235 207 36 32 65 58 66 58 1 0 41 -18 88 -40z m2322 -146 c120 -57 161 -224
80 -321 l-24 -28 94 -80 c51 -44 93 -82 93 -85 0 -3 -36 -20 -80 -39 l-81 -33
-36 33 c-20 19 -60 55 -87 82 -50 46 -52 47 -85 36 -19 -7 -39 -15 -44 -19 -4
-5 4 -49 18 -98 14 -50 26 -95 26 -100 0 -8 -150 -57 -154 -50 -4 7 -195 612
-193 613 1 0 72 24 157 52 171 58 252 67 316 37z m-1742 -74 c72 -17 156 -42
188 -57 70 -31 148 -112 166 -170 27 -90 7 -211 -47 -283 -34 -46 -56 -65
-116 -98 -72 -39 -205 -38 -360 2 -60 16 -113 32 -117 35 -3 3 16 110 43 236
82 391 79 376 97 371 9 -3 75 -19 146 -36z m1060 -121 c4 -34 6 -63 4 -65 -9
-8 -147 -24 -210 -24 l-68 0 0 -56 0 -56 58 6 c31 3 87 8 123 12 l66 6 6 -53
c13 -105 24 -95 -123 -104 l-130 -7 6 -51 c3 -29 7 -53 8 -54 1 -1 69 2 151 7
82 5 150 8 150 7 0 -1 -1 -32 -3 -68 l-4 -67 -36 -5 c-20 -4 -125 -9 -233 -13
l-196 -7 -7 312 c-4 172 -6 315 -3 317 4 4 258 19 378 23 l56 1 7 -61z"/>
<path d="M5671 8022 c-6 -31 -11 -61 -11 -67 0 -21 179 -45 206 -27 21 13 32
47 23 69 -11 29 -49 48 -135 65 l-72 15 -11 -55z"/>
<path d="M5606 7732 c-9 -39 -16 -73 -16 -75 0 -2 42 -12 93 -22 81 -16 96
-16 122 -4 39 19 54 61 34 97 -16 30 -82 56 -167 68 l-50 6 -16 -70z"/>
<path d="M4746 7919 c-15 -66 -26 -122 -24 -124 3 -4 161 15 166 20 5 4 -101
225 -108 225 -3 0 -19 -54 -34 -121z"/>
<path d="M6982 7246 l-113 -63 71 -63 c39 -34 72 -61 74 -59 2 3 48 118 93
237 8 20 -7 14 -125 -52z"/>
<path d="M4822 7020 c-78 -4 -95 -8 -104 -24 -21 -37 -115 -141 -138 -153 -61
-31 -87 52 -43 140 17 34 14 34 -94 3 -118 -34 -127 -41 -152 -133 -24 -90
-48 -127 -84 -131 -35 -4 -59 34 -60 97 l-1 50 -71 -50 c-124 -85 -121 -81
-128 -211 -4 -83 -16 -108 -52 -108 -29 0 -57 32 -76 88 l-16 46 -38 -59 c-21
-33 -49 -80 -62 -105 l-23 -45 26 -103 c25 -96 25 -104 10 -127 -31 -48 -94
-25 -149 54 -9 14 -19 22 -22 19 -3 -3 -13 -55 -22 -116 -18 -127 -16 -138 48
-223 49 -66 54 -84 35 -114 -22 -34 -61 -32 -119 5 -46 29 -47 29 -47 7 0 -27
36 -182 51 -219 7 -17 36 -43 74 -67 64 -41 83 -71 70 -112 -10 -31 -87 -38
-147 -14 -29 12 -21 -6 50 -110 l67 -100 79 -25 c152 -49 157 -125 9 -154
l-57 -12 50 -35 c27 -19 77 -52 112 -74 l63 -39 86 17 c78 15 87 15 109 0 19
-12 24 -23 22 -47 -3 -28 -11 -35 -75 -66 -40 -19 -72 -37 -73 -40 0 -8 241
-80 266 -80 12 0 95 46 185 103 90 56 203 127 252 156 48 29 87 53 87 54 0 1
-53 3 -118 3 -134 2 -233 24 -333 75 -227 114 -361 284 -414 523 -25 113 -17
299 19 419 47 157 114 270 233 390 366 370 972 352 1247 -37 88 -123 133 -248
151 -413 12 -108 -29 -334 -72 -401 -8 -13 -13 -25 -11 -28 4 -3 223 184 371
318 80 74 87 83 87 118 0 57 -6 65 -80 120 -38 28 -72 60 -75 71 -19 59 29 95
105 78 24 -5 44 -8 46 -6 4 4 -102 175 -121 195 -6 7 -44 22 -84 32 -76 19
-118 41 -128 66 -8 23 34 62 91 83 l50 18 -49 34 c-26 19 -68 51 -92 72 -24
20 -50 37 -57 37 -7 0 -40 -9 -73 -21 -34 -11 -78 -19 -99 -17 -31 2 -40 8
-50 34 -18 43 -1 72 64 111 l53 31 -108 36 c-59 20 -119 36 -133 36 -14 0 -41
-13 -60 -29 -40 -32 -109 -71 -127 -71 -19 0 -53 42 -53 65 0 12 16 43 35 68
19 25 35 47 35 49 0 5 -31 4 -148 -2z"/>
<path d="M4595 6434 c-41 -8 -113 -36 -175 -66 -89 -45 -118 -66 -190 -138
-140 -140 -207 -285 -217 -470 -14 -265 122 -491 352 -587 162 -67 389 -56
556 27 190 96 323 239 392 424 38 104 48 262 23 370 -39 167 -159 319 -308
390 -134 64 -281 81 -433 50z m300 -79 c82 -22 149 -60 222 -129 118 -109 170
-243 160 -411 -15 -256 -191 -479 -456 -575 -256 -94 -516 -16 -653 194 -56
87 -78 168 -78 290 0 188 53 312 194 451 97 97 187 151 296 179 74 20 241 20
315 1z"/>
<path d="M4587 6066 c-118 -49 -189 -121 -229 -233 -26 -75 -22 -188 10 -249
107 -208 416 -210 568 -3 68 93 90 212 58 319 -21 70 -98 149 -168 173 -72 25
-168 22 -239 -7z m200 -61 c63 -19 126 -84 143 -147 25 -89 -8 -196 -81 -269
-57 -57 -113 -81 -194 -86 -62 -4 -76 -1 -125 24 -78 40 -115 102 -115 192 1
134 86 245 218 287 56 17 93 17 154 -1z"/>
<path d="M4629 5827 c-19 -15 -39 -50 -39 -71 0 -46 72 -61 108 -23 24 25 29
76 10 95 -15 15 -58 15 -79 -1z"/>
<path d="M6219 6263 c-128 -124 -189 -196 -189 -225 0 -11 17 -38 39 -59 l38
-38 -181 -179 c-198 -195 -342 -318 -587 -503 -161 -121 -518 -365 -659 -451
-322 -195 -783 -503 -940 -627 -120 -95 -268 -233 -321 -299 -47 -59 -59 -80
-59 -109 0 -50 31 -94 103 -149 113 -84 199 -115 267 -95 33 10 44 21 74 77
75 135 207 292 348 410 195 164 371 286 1008 700 428 278 772 525 1088 781 85
69 155 123 156 121 2 -1 21 -50 43 -108 89 -231 118 -416 110 -703 l-5 -198
57 7 c145 17 333 81 458 156 80 47 246 209 301 293 50 77 159 283 151 287 -2
2 -47 25 -99 52 -273 140 -478 315 -584 498 -26 44 -26 48 -12 77 11 21 13 37
7 53 -5 13 -70 84 -145 158 -126 125 -138 134 -173 134 -21 0 -46 -4 -55 -8
-13 -6 -18 -4 -18 6 0 25 -35 48 -73 48 -33 0 -48 -11 -148 -107z m189 -45 c3
-17 -231 -228 -253 -228 -30 0 -13 27 63 101 151 147 182 168 190 127z m950
-907 l23 -12 -37 -67 c-144 -259 -304 -390 -573 -468 -46 -13 -87 -24 -92 -24
-4 0 -7 36 -6 80 1 44 6 80 10 80 4 0 44 14 88 31 153 59 370 223 475 361 43
56 47 58 67 45 12 -8 32 -19 45 -26z"/>
<path d="M5950 4754 c-124 -18 -319 -45 -433 -58 l-209 -26 -126 -76 c-586
-356 -1034 -677 -1117 -799 -23 -35 -26 -48 -23 -102 4 -72 25 -107 79 -134
32 -17 109 -19 1083 -27 687 -6 1063 -6 1089 1 49 13 132 88 175 159 41 70 86
201 102 301 17 105 8 280 -20 377 -68 234 -224 423 -344 419 -17 -1 -132 -16
-256 -35z m304 -86 c51 -15 125 -88 160 -156 14 -28 38 -90 53 -139 24 -79 27
-104 27 -248 1 -141 -2 -169 -23 -235 -41 -133 -96 -212 -174 -252 -61 -31
-153 -22 -204 18 -89 70 -155 213 -188 403 -18 107 -15 162 21 299 42 162 106
266 188 303 48 22 84 24 140 7z m-354 -33 c0 -2 -10 -24 -21 -48 l-21 -44
-152 -17 c-535 -60 -592 -63 -541 -33 11 7 175 42 365 78 368 71 370 71 370
64z m-86 -274 c3 -5 1 -22 -5 -39 -12 -36 -22 -38 -206 -48 l-133 -7 0 27 c0
30 -5 28 160 55 131 22 176 25 184 12z m-550 -54 c10 -7 17 -22 14 -33 -3 -16
-15 -20 -78 -25 -126 -11 -348 -10 -355 1 -11 18 39 30 210 49 94 10 175 19
181 20 5 0 18 -5 28 -12z m508 -264 l3 -46 -599 7 c-330 3 -602 9 -605 11 -2
3 0 10 7 17 7 7 106 14 294 20 156 5 387 15 513 22 127 7 264 14 306 15 l77 1
4 -47z m72 -249 c10 -25 7 -64 -4 -64 -50 0 -417 43 -424 50 -25 25 13 30 214
30 180 0 209 -2 214 -16z m-699 -19 c0 -20 -8 -20 -405 -23 -223 -1 -420 0
-437 3 -35 6 -45 30 -15 38 9 3 206 4 437 3 413 -1 420 -1 420 -21z"/>
<path d="M6123 4540 c-83 -50 -133 -173 -140 -347 -8 -173 30 -311 112 -401
171 -190 385 111 322 453 -37 199 -119 315 -222 315 -22 0 -54 -9 -72 -20z
m110 -54 c169 -70 209 -489 61 -643 -41 -44 -45 -45 -89 -40 -118 13 -193 174
-183 393 6 131 30 203 85 256 54 51 74 56 126 34z"/>
<path d="M6147 4352 c-37 -40 -51 -95 -51 -192 -1 -86 2 -102 29 -155 51 -101
112 -107 157 -16 19 39 23 62 23 146 -1 83 -5 109 -24 153 -13 29 -33 59 -45
67 -28 20 -70 19 -89 -3z m81 -62 c58 -63 55 -267 -5 -298 -27 -14 -41 -5 -65
41 -17 33 -22 60 -22 127 -1 128 40 186 92 130z"/>
<path d="M6703 2905 c3 -11 13 -56 22 -100 9 -44 18 -86 20 -92 4 -13 120 61
120 76 0 4 -31 32 -70 61 -38 29 -76 57 -84 64 -11 9 -13 7 -8 -9z"/>
<path d="M3715 2670 c-43 -44 -77 -81 -74 -83 7 -7 121 -57 128 -57 7 0 34
211 28 216 -2 2 -39 -32 -82 -76z"/>
<path d="M5993 2597 c-34 -12 -64 -24 -67 -27 -5 -5 31 -140 40 -149 8 -8 137
45 160 66 34 31 33 84 -2 112 -33 26 -52 25 -131 -2z"/>
<path d="M4416 2523 c-7 -24 -66 -311 -66 -322 0 -10 101 -31 150 -31 50 0
100 35 128 90 19 37 23 57 20 109 -4 58 -7 66 -40 97 -23 20 -59 39 -95 49
-32 9 -66 19 -75 21 -10 3 -18 -2 -22 -13z"/>
</g>
</svg>
